<svg width="357" height="258" viewBox="0 0 357 258" fill="none" xmlns="http://www.w3.org/2000/svg">
<g clip-path="url(#clip0)">
<path d="M15.941 129.948C19.7968 122.175 21.9776 115.404 20.8119 114.826C19.6462 114.247 15.5756 120.08 11.7198 127.853C7.86401 135.626 5.68324 142.397 6.8489 142.975C8.01457 143.554 12.0852 137.721 15.941 129.948Z" fill="#E0E0E0"/>
<path d="M211.536 227.117C215.391 219.343 217.875 212.723 217.083 212.33C216.291 211.937 212.523 217.92 208.668 225.693C204.812 233.467 202.328 240.087 203.12 240.48C203.912 240.873 207.68 234.89 211.536 227.117Z" fill="#E0E0E0"/>
<path d="M106.429 187.82L99.1613 181.818L79.1588 206.049L86.426 212.051L106.429 187.82Z" fill="#F55F44"/>
<path opacity="0.05" d="M89.7168 213.984L100.039 216.412L107.23 185.822L96.907 183.394L89.7168 213.984Z" fill="black"/>
<path d="M90.865 214.254L100.039 216.412L107.23 185.822L98.0553 183.664L90.865 214.254Z" fill="#F55F44"/>
<path d="M21.161 114.122L6.49985 143.679L202.787 241.099L217.449 211.542L21.161 114.122Z" fill="url(#paint0_linear)"/>
<path d="M203.137 240.395C199.295 238.552 4.03475 141.579 6.84891 142.976C17.6864 126.429 20.8119 114.826 20.8119 114.826L217.1 212.246C217.1 212.246 210.206 224.347 203.137 240.395Z" fill="#F5F5F5"/>
<path opacity="0.05" d="M122.825 165.456L106.644 157.425L92.6808 185.575L108.862 193.606L122.825 165.456Z" fill="black"/>
<path d="M122.122 165.107L107.347 157.774L93.3843 185.924L108.159 193.257L122.122 165.107Z" fill="#F55F44"/>
<path opacity="0.05" d="M119.308 163.71L109.458 158.822L95.4949 186.972L105.345 191.86L119.308 163.71Z" fill="black"/>
<path d="M118.604 163.361L110.161 159.171L96.1985 187.321L104.641 191.511L118.604 163.361Z" fill="#F55F44"/>
<path d="M117.467 254.152C118.19 254.152 118.777 253.566 118.777 252.842C118.777 252.119 118.19 251.532 117.467 251.532C116.744 251.532 116.158 252.119 116.158 252.842C116.158 253.566 116.744 254.152 117.467 254.152Z" fill="#DBDBDB"/>
<g opacity="0.5">
<path opacity="0.5" d="M15.0118 216.164H13.669V223.775H15.0118V216.164Z" fill="#47E6B1"/>
<path opacity="0.5" d="M18.1448 220.641V219.298H10.536V220.641H18.1448Z" fill="#47E6B1"/>
</g>
<g opacity="0.5">
<path opacity="0.5" d="M353.38 121.25H352.037V128.861H353.38V121.25Z" fill="#47E6B1"/>
<path opacity="0.5" d="M356.513 125.727V124.384H348.904V125.727H356.513Z" fill="#47E6B1"/>
</g>
<g opacity="0.5">
<path opacity="0.5" d="M23.0681 26.7844H21.7254V34.3954H23.0681V26.7844Z" fill="#47E6B1"/>
<path opacity="0.5" d="M26.2012 31.2615V29.9184H18.5924V31.2615H26.2012Z" fill="#47E6B1"/>
</g>
<g opacity="0.5">
<path opacity="0.5" d="M313.098 15.1441H311.755V22.7551H313.098V15.1441Z" fill="#47E6B1"/>
<path opacity="0.5" d="M316.231 19.6211V18.278H308.622V19.6211H316.231Z" fill="#47E6B1"/>
</g>
<path opacity="0.5" d="M6.0134 113.844C5.64336 113.682 5.34551 113.391 5.17653 113.024C5.00755 112.657 4.97924 112.241 5.09699 111.855C5.11604 111.796 5.12804 111.735 5.13275 111.673V111.673C5.14351 111.496 5.09703 111.32 5.00017 111.172C4.90332 111.023 4.76125 110.91 4.595 110.849C4.42876 110.787 4.24718 110.781 4.07716 110.831C3.90715 110.881 3.75774 110.985 3.65107 111.126V111.126C3.61439 111.176 3.58376 111.231 3.55981 111.288C3.39865 111.658 3.10707 111.956 2.74054 112.125C2.37402 112.294 1.95816 112.323 1.57212 112.205C1.51294 112.186 1.45171 112.174 1.38971 112.169V112.169C1.21285 112.158 1.03722 112.205 0.888834 112.302C0.740452 112.399 0.627214 112.541 0.565888 112.707C0.504562 112.873 0.498414 113.055 0.54835 113.225C0.598286 113.395 0.70165 113.544 0.843138 113.651V113.651C0.893339 113.688 0.947693 113.718 1.00507 113.742C1.3751 113.904 1.67295 114.195 1.84194 114.562C2.01092 114.929 2.03922 115.344 1.92148 115.731C1.90242 115.79 1.89042 115.851 1.88571 115.913V115.913C1.87495 116.09 1.92144 116.266 2.01829 116.414C2.11515 116.563 2.25722 116.676 2.42347 116.737C2.58971 116.799 2.77129 116.805 2.9413 116.755C3.11132 116.705 3.26072 116.601 3.3674 116.46V116.46C3.40408 116.41 3.43471 116.355 3.45866 116.298C3.61981 115.928 3.9114 115.63 4.27792 115.461C4.64444 115.292 5.0603 115.263 5.44634 115.381C5.50553 115.4 5.56675 115.412 5.62875 115.417V115.417C5.80562 115.428 5.98126 115.381 6.12964 115.284C6.27802 115.187 6.39127 115.045 6.45259 114.879C6.51392 114.713 6.52007 114.531 6.47013 114.361C6.42019 114.191 6.31682 114.042 6.17533 113.935C6.12513 113.898 6.07077 113.868 6.0134 113.844V113.844Z" fill="#4D8AF0"/>
<path opacity="0.5" d="M82.9966 25.6456C82.6266 25.4844 82.3287 25.1927 82.1597 24.8261C81.9907 24.4595 81.9624 24.0435 82.0802 23.6573C82.0992 23.5981 82.1112 23.5369 82.1159 23.4749V23.4749C82.1267 23.2979 82.0802 23.1223 81.9834 22.9738C81.8865 22.8254 81.7444 22.7121 81.5782 22.6508C81.4119 22.5894 81.2304 22.5833 81.0604 22.6332C80.8903 22.6832 80.7409 22.7866 80.6343 22.9281V22.9281C80.5976 22.9783 80.5669 23.0327 80.543 23.0901C80.3818 23.4602 80.0902 23.7582 79.7237 23.9272C79.3572 24.0962 78.9414 24.1246 78.5553 24.0068C78.4961 23.9877 78.4349 23.9757 78.3729 23.971V23.971C78.196 23.9602 78.0204 24.0067 77.872 24.1036C77.7236 24.2005 77.6104 24.3426 77.5491 24.5089C77.4877 24.6752 77.4816 24.8568 77.5315 25.0269C77.5815 25.197 77.6848 25.3464 77.8263 25.4531V25.4531C77.8765 25.4898 77.9309 25.5204 77.9883 25.5444C78.3583 25.7056 78.6561 25.9973 78.8251 26.3639C78.9941 26.7305 79.0224 27.1465 78.9047 27.5327C78.8856 27.5919 78.8736 27.6531 78.8689 27.7151V27.7151C78.8581 27.892 78.9046 28.0677 79.0015 28.2161C79.0983 28.3646 79.2404 28.4778 79.4066 28.5392C79.5729 28.6005 79.7545 28.6067 79.9245 28.5567C80.0945 28.5068 80.2439 28.4034 80.3506 28.2618C80.3873 28.2116 80.4179 28.1573 80.4418 28.0999C80.603 27.7297 80.8946 27.4318 81.2611 27.2628C81.6276 27.0937 82.0435 27.0654 82.4295 27.1832C82.4887 27.2023 82.5499 27.2143 82.6119 27.219V27.219C82.7888 27.2297 82.9644 27.1832 83.1128 27.0864C83.2612 26.9895 83.3745 26.8474 83.4358 26.6811C83.4971 26.5148 83.5033 26.3331 83.4533 26.1631C83.4034 25.993 83.3 25.8436 83.1585 25.7369V25.7369C83.1083 25.7002 83.054 25.6695 82.9966 25.6456V25.6456Z" fill="#4D8AF0"/>
<path opacity="0.5" d="M176.988 254.423C176.618 254.262 176.32 253.97 176.151 253.604C175.982 253.237 175.954 252.821 176.071 252.435C176.09 252.376 176.102 252.314 176.107 252.252V252.252C176.118 252.075 176.071 251.9 175.974 251.751C175.878 251.603 175.736 251.49 175.569 251.428C175.403 251.367 175.221 251.361 175.051 251.411C174.881 251.461 174.732 251.564 174.625 251.706C174.589 251.756 174.558 251.81 174.534 251.868C174.373 252.238 174.081 252.536 173.715 252.705C173.348 252.874 172.932 252.902 172.546 252.784C172.487 252.765 172.426 252.753 172.364 252.749V252.749C172.187 252.738 172.012 252.784 171.863 252.881C171.715 252.978 171.602 253.12 171.54 253.286C171.479 253.453 171.473 253.634 171.523 253.804C171.573 253.974 171.676 254.124 171.817 254.231C171.868 254.267 171.922 254.298 171.979 254.322C172.349 254.483 172.647 254.775 172.816 255.141C172.985 255.508 173.014 255.924 172.896 256.31C172.877 256.369 172.865 256.431 172.86 256.493V256.493C172.849 256.67 172.896 256.845 172.993 256.994C173.089 257.142 173.232 257.255 173.398 257.317C173.564 257.378 173.746 257.384 173.916 257.334C174.086 257.284 174.235 257.181 174.342 257.039V257.039C174.378 256.989 174.409 256.935 174.433 256.877C174.594 256.507 174.886 256.209 175.252 256.04C175.619 255.871 176.035 255.843 176.421 255.961C176.48 255.98 176.541 255.992 176.603 255.997V255.997C176.78 256.007 176.956 255.961 177.104 255.864C177.252 255.767 177.366 255.625 177.427 255.459C177.488 255.292 177.494 255.111 177.444 254.941C177.395 254.771 177.291 254.621 177.15 254.514V254.514C177.099 254.478 177.045 254.447 176.988 254.423V254.423Z" fill="#4D8AF0"/>
<path opacity="0.5" d="M340.4 201.837C341.883 201.837 343.086 200.635 343.086 199.151C343.086 197.667 341.883 196.465 340.4 196.465C338.917 196.465 337.715 197.667 337.715 199.151C337.715 200.635 338.917 201.837 340.4 201.837Z" fill="#F55F44"/>
<path opacity="0.5" d="M281.32 218.85C282.803 218.85 284.005 217.647 284.005 216.164C284.005 214.68 282.803 213.478 281.32 213.478C279.837 213.478 278.634 214.68 278.634 216.164C278.634 217.647 279.837 218.85 281.32 218.85Z" fill="#4D8AF0"/>
<path opacity="0.5" d="M46.7897 245.265C48.2728 245.265 49.4752 244.062 49.4752 242.578C49.4752 241.095 48.2728 239.892 46.7897 239.892C45.3066 239.892 44.1042 241.095 44.1042 242.578C44.1042 244.062 45.3066 245.265 46.7897 245.265Z" fill="#47E6B1"/>
<path opacity="0.5" d="M184.643 5.74225C186.126 5.74225 187.329 4.53958 187.329 3.05601C187.329 1.57245 186.126 0.369781 184.643 0.369781C183.16 0.369781 181.958 1.57245 181.958 3.05601C181.958 4.53958 183.16 5.74225 184.643 5.74225Z" fill="#F55F44"/>
<path d="M92.2188 160.425L81.4769 176.542C81.4769 176.542 85.0575 193.107 164.279 192.659C243.5 192.212 249.766 176.542 249.766 176.542L234.996 155.052L189.79 124.16L92.2188 160.425Z" fill="#6C63FF"/>
<path opacity="0.15" d="M92.2188 160.425L81.4769 176.542C81.4769 176.542 85.0575 193.107 164.279 192.659C243.5 192.212 249.766 176.542 249.766 176.542L234.996 155.052L189.79 124.16L92.2188 160.425Z" fill="black"/>
<path d="M320.707 100.656L179.72 162.887L7.8504 100.656L165.397 29.0229L242.734 64.6916L245.505 65.9721L320.707 100.656Z" fill="#6C63FF"/>
<path opacity="0.15" d="M320.707 100.656L179.72 162.887L7.8504 100.656L165.397 29.0229L242.734 64.6916L245.505 65.9721L320.707 100.656Z" fill="black"/>
<path d="M248.423 115.573L245.737 115.735L242.734 64.6916L245.505 65.9721L248.423 115.573Z" fill="#F5F5F5"/>
<path d="M94.0091 100.432L81.4769 176.542C81.4769 176.542 171.44 147.441 249.766 176.542L238.129 95.9549C238.129 95.9549 132.948 82.9715 94.0091 100.432Z" fill="#6C63FF"/>
<path d="M248.199 131.1C255.368 131.1 261.179 127.091 261.179 122.146C261.179 117.2 255.368 113.192 248.199 113.192C241.031 113.192 235.22 117.2 235.22 122.146C235.22 127.091 241.031 131.1 248.199 131.1Z" fill="#F5F5F5"/>
</g>
<defs>
<linearGradient id="paint0_linear" x1="104.644" y1="192.389" x2="119.312" y2="162.835" gradientUnits="userSpaceOnUse">
<stop stop-color="#808080" stop-opacity="0.25"/>
<stop offset="0.53514" stop-color="#808080" stop-opacity="0.12"/>
<stop offset="1" stop-color="#808080" stop-opacity="0.1"/>
</linearGradient>
<clipPath id="clip0">
<rect width="356" height="257" fill="white" transform="translate(0.512817 0.369781)"/>
</clipPath>
</defs>
</svg>
