<svg width="30" height="28" viewBox="0 0 30 28" fill="none" xmlns="http://www.w3.org/2000/svg">
<path fill-rule="evenodd" clip-rule="evenodd" d="M4.64862 3.98746H22.8564C23.4087 3.98746 23.8564 4.43517 23.8564 4.98746V7.0034H26.8564V4.98746C26.8564 2.77832 25.0655 0.987457 22.8564 0.987457H4.64862C2.43948 0.987457 0.648621 2.77832 0.648621 4.98746V23.1952C0.648621 25.4044 2.43948 27.1952 4.64862 27.1952H22.8564C25.0655 27.1952 26.8564 25.4044 26.8564 23.1952V21.1793H23.8564V23.1952C23.8564 23.7475 23.4087 24.1952 22.8564 24.1952H4.64862C4.09634 24.1952 3.64862 23.7475 3.64862 23.1952V4.98746C3.64862 4.43517 4.09634 3.98746 4.64862 3.98746ZM26.8564 15.7576V17.8465H23.8564V15.7576H26.8564ZM26.8564 12.4248V10.3362H23.8564V12.4248H26.8564Z" fill="white"/>
<rect x="13.7525" y="7.43912" width="15.9499" height="2.46647" rx="1" fill="white"/>
<rect x="11.6402" y="12.8581" width="15.9499" height="2.46647" rx="1" fill="white"/>
<rect x="13.7525" y="18.2772" width="15.9499" height="2.46647" rx="1" fill="white"/>
</svg>
