<svg width="14" height="13" viewBox="0 0 14 13" fill="none" xmlns="http://www.w3.org/2000/svg">
<path d="M6.48839 0.606856C6.88866 0.110115 7.64544 0.110115 8.04571 0.606857L9.95265 2.97337C10.0638 3.11133 10.2096 3.21728 10.3752 3.28037L13.2152 4.36268C13.8113 4.58986 14.0451 5.3096 13.6964 5.84378L12.035 8.38868C11.9381 8.53703 11.8824 8.70846 11.8736 8.88541L11.7218 11.9208C11.69 12.558 11.0777 13.0028 10.4619 12.8362L7.5282 12.0425C7.35718 11.9962 7.17693 11.9962 7.0059 12.0425L4.07216 12.8362C3.45636 13.0028 2.84411 12.558 2.81226 11.9208L2.66052 8.88541C2.65167 8.70846 2.59597 8.53703 2.49912 8.38868L0.837707 5.84378C0.488969 5.3096 0.722826 4.58986 1.31895 4.36268L4.15891 3.28037C4.32447 3.21728 4.47029 3.11133 4.58146 2.97337L6.48839 0.606856Z" fill="url(#paint0_linear)"/>
<defs>
<linearGradient id="paint0_linear" x1="7.26705" y1="-0.359467" x2="7.26705" y2="14.5876" gradientUnits="userSpaceOnUse">
<stop stop-color="#34D8CE"/>
<stop offset="1" stop-color="#175A98"/>
</linearGradient>
</defs>
</svg>
